<svg id="eW63DzR9keg1" xmlns="http://www.w3.org/2000/svg" xmlns:xlink="http://www.w3.org/1999/xlink" viewBox="0 0 24 24" shape-rendering="geometricPrecision" text-rendering="geometricPrecision"><path d="M8.5,9.5C8.5,7.567,10.067,6,12,6s3.5,1.567,3.5,3.5-1.567,3.5-3.5,3.5-3.5-1.567-3.5-3.5ZM12,8c-.8284,0-1.5.67157-1.5,1.5s.6716,1.5,1.5,1.5s1.5-.6716,1.5-1.5-.6716-1.5-1.5-1.5Z" clip-rule="evenodd" fill-rule="evenodd"/><path d="M15.3307,21.4319C19.2161,20.0599,22,16.355,22,12C22,6.47715,-2.6147,1.980743,12,2.090784s-10,4.386366-10,9.909216c0,4.355,2.78394,8.0599,6.66927,9.4319C9.52012,21.7843,10.611,22,12,22s2.4798-.2157,3.3307-.5681ZM12,3.356259C6.204895,3.356259,7.12478,13.03989,4,12c-2.002618-.666448.8173,4.0302,2.15267,5.4598C6.93324,15.9504,8.49158,15,10.1943,15h3.6117c1.7026,0,3.2609.9503,4.0415,2.4596C19.1828,16.0301,22.008192,11.350876,20,12c-3.217104,1.03989-2.182575-8.643741-8-8.643741ZM14.6147,19.5629c.4339-.1876.7159-.4074.8997-.5995.2766-.2893.3962-.5838.4477-.7751C15.4982,17.4536,14.6865,17,13.806,17h-3.6117c-.88062,0-1.69233.4536-2.1562,1.1883.05146.1913.17105.4859.44765.7751.18375.1921.46568.4119.89952.5995C10.2046,19.8462,11.0843,20,12,20s1.7954-.1538,2.6147-.4371Z" transform="matrix(1 0 0 1.071767 0-1.578874)" clip-rule="evenodd" fill-rule="evenodd"/></svg>