<svg id="eAW8VzLpnOg1" xmlns="http://www.w3.org/2000/svg" xmlns:xlink="http://www.w3.org/1999/xlink" viewBox="0 0 24 24" shape-rendering="geometricPrecision" text-rendering="geometricPrecision"><g transform="matrix(.9 0 0 0.9 1.2 1.205502)"><path d="M4,3c0-.55228.44772-1,1-1h14c.5523,0,1,.44772,1,1v18c0,.3565-.1898.686-.4981.8649s-.6885.1802-.998.0033l-5.0155-2.8659c-.9223-.5271-2.0545-.5271-2.9768,0L5.49614,21.8682c-.3095.1769-.68975.1756-.99807-.0033s-.49807-.5084-.49807-.8649L4,3ZM6,4v15.2768l3.51931-2.011c1.53719-.8784,3.42419-.8784,4.96139,0L18,19.2768L18,4L6,4Z" transform="translate(0 0.055021)" clip-rule="evenodd" fill-rule="evenodd"/></g></svg>