<svg id="eTb7ifWFDlY1" xmlns="http://www.w3.org/2000/svg" xmlns:xlink="http://www.w3.org/1999/xlink" viewBox="0 0 24 24" shape-rendering="geometricPrecision" text-rendering="geometricPrecision"><path d="M5,20c-.55228,0-1,.4477-1,1s.44772,1,1,1h14c.5523,0,1-.4477,1-1s-.4477-1-1-1h-14Z" transform="matrix(.707107-.707107 0.707107 0.707107-11.774689 5.636039)"/><path d="M5,20c-.55228,0-1,.4477-1,1s.44772,1,1,1h14c.5523,0,1-.4477,1-1s-.4477-1-1-1h-14Z" transform="matrix(.707107 0.707107-.707107 0.707107 17.923796-11.334524)"/></svg>