<svg id="erSAuTD2tzP1" xmlns="http://www.w3.org/2000/svg" xmlns:xlink="http://www.w3.org/1999/xlink" viewBox="0 0 24 24" shape-rendering="geometricPrecision" text-rendering="geometricPrecision"><g transform="matrix(1.2 0 0 1.195111-1.946109-2.196669)"><path d="M5,20c-.55228,0-1,.4477-1,1s.44772,1,1,1h14c.5523,0,1-.4477,1-1s-.4477-1-1-1h-14Z" transform="matrix(.647881 0 0 0.753092 3.323304 3.064022)" stroke-width="0.5"/><path d="M5,20c-.55228,0-1,.4477-1,1s.44772,1,1,1h14c.5523,0,1-.4477,1-1s-.4477-1-1-1h-14Z" transform="matrix(0-.28656 0.753092 0-.13097 20.778286)" stroke-width="0.5"/><path d="M5,20c-.55228,0-1,.4477-1,1s.44772,1,1,1h14c.5523,0,1-.4477,1-1s-.4477-1-1-1h-14Z" transform="matrix(0-.301991 0.753092 0-.13097 10.165686)" stroke-width="0.5"/><path d="M5,20c-.55228,0-1,.4477-1,1s.44772,1,1,1h14c.5523,0,1-.4477,1-1s-.4477-1-1-1h-14Z" transform="matrix(0-.969137 0.753092 0-9.147007 23.508598)" stroke-width="0.5"/><path d="M5,20c-.55228,0-1,.4477-1,1s.44772,1,1,1h14c.5523,0,1-.4477,1-1s-.4477-1-1-1h-14Z" transform="matrix(.646211 0 0 0.753092 3.329984-10.935978)" stroke-width="0.5"/><path d="M9.462224,13.999999h9.359331v2l4.106283-3.136822-4.106283-3.363178v2h-9.359331v2.5Z" transform="matrix(.803282 0 0 1 2.674785-.542277)" stroke="#fff" stroke-width="0.5"/></g></svg>