<?xml version="1.0" encoding="UTF-8" standalone="no"?><svg xmlns="http://www.w3.org/2000/svg" xmlns:xlink="http://www.w3.org/1999/xlink" style="isolation:isolate" viewBox="0 0 24 24" width="32pt" height="32pt"><defs><clipPath id="_clipPath_2OsV9FQyNxoAOxz4uBpf5qE9waIyc23g"><rect width="32" height="32"/></clipPath></defs><g clip-path="url(#_clipPath_2OsV9FQyNxoAOxz4uBpf5qE9waIyc23g)">
<path d=" M 4.562 15.3 C 3.976 15.3 3.5 15.792 3.5 16.4 C 3.5 17.008 3.976 17.5 4.562 17.5 L 19.437 17.5 C 20.024 17.5 20.5 17.008 20.5 16.4 C 20.5 15.792 20.024 15.3 19.437 15.3 L 4.562 15.3 Z " fill="#ffffff"/>
<path d=" M 4.562 10.9 C 3.976 10.9 3.5 11.392 3.5 12 C 3.5 12.608 3.976 13.1 4.562 13.1 L 19.437 13.1 C 20.024 13.1 20.5 12.608 20.5 12 C 20.5 11.392 20.024 10.9 19.437 10.9 L 4.562 10.9 Z " fill="#ffffff"/>
<path d=" M 4.562 6.5 C 3.976 6.5 3.5 6.992 3.5 7.6 C 3.5 8.208 3.976 8.7 4.562 8.7 L 19.437 8.7 C 20.024 8.7 20.5 8.208 20.5 7.6 C 20.5 6.992 20.024 6.5 19.437 6.5 L 4.562 6.5 Z " fill="#ffffff"/></g></svg>